<svg id="Group_113" data-name="Group 113" xmlns="http://www.w3.org/2000/svg" width="349.583" height="345.342" viewBox="0 0 349.583 345.342">
  <path id="Path_73" data-name="Path 73" d="M590.452,167.4h-1.894V115.51a30.033,30.033,0,0,0-30.033-30.033H448.588a30.033,30.033,0,0,0-30.033,30.033V400.185a30.033,30.033,0,0,0,30.033,30.033H558.525a30.033,30.033,0,0,0,30.033-30.033V204.337h1.894Z" transform="translate(-329.712 -85.477)" fill="#e6e6e6"/>
  <path id="Path_74" data-name="Path 74" d="M591.374,124.4V408.657a22.429,22.429,0,0,1-22.429,22.429H458.48a22.43,22.43,0,0,1-22.429-22.429V124.4a22.43,22.43,0,0,1,22.429-22.429h13.4a10.661,10.661,0,0,0,9.867,14.68H544.73a10.661,10.661,0,0,0,9.867-14.68h14.348A22.429,22.429,0,0,1,591.374,124.4Z" transform="translate(-338.92 -94.158)" fill="#fff"/>
  <path id="Path_75" data-name="Path 75" d="M510.9,235.953H493.934a5.278,5.278,0,0,1-5.272-5.272V213.718a5.278,5.278,0,0,1,5.272-5.272H510.9a5.278,5.278,0,0,1,5.272,5.272v16.964A5.278,5.278,0,0,1,510.9,235.953Z" transform="translate(-366.61 -150.197)" fill="#6c63ff"/>
  <path id="Path_76" data-name="Path 76" d="M593.2,235.953H576.238a5.278,5.278,0,0,1-5.272-5.272V213.718a5.278,5.278,0,0,1,5.272-5.272H593.2a5.278,5.278,0,0,1,5.272,5.272v16.964a5.278,5.278,0,0,1-5.272,5.272Z" transform="translate(-409.928 -150.197)" fill="#6c63ff"/>
  <path id="Path_77" data-name="Path 77" d="M675.505,235.953H658.542a5.278,5.278,0,0,1-5.272-5.272V213.718a5.278,5.278,0,0,1,5.272-5.272h16.964a5.278,5.278,0,0,1,5.272,5.272v16.964A5.278,5.278,0,0,1,675.505,235.953Z" transform="translate(-453.245 -150.197)" fill="#e6e6e6"/>
  <path id="Path_78" data-name="Path 78" d="M510.9,327.462H493.934a5.278,5.278,0,0,1-5.272-5.272V305.227a5.278,5.278,0,0,1,5.272-5.272H510.9a5.278,5.278,0,0,1,5.272,5.272V322.19A5.278,5.278,0,0,1,510.9,327.462Z" transform="translate(-366.61 -198.359)" fill="#e6e6e6"/>
  <path id="Path_79" data-name="Path 79" d="M593.2,327.462H576.238a5.278,5.278,0,0,1-5.272-5.272V305.227a5.278,5.278,0,0,1,5.272-5.272H593.2a5.278,5.278,0,0,1,5.272,5.272v16.964a5.278,5.278,0,0,1-5.272,5.272Z" transform="translate(-409.928 -198.359)" fill="#e6e6e6"/>
  <path id="Path_80" data-name="Path 80" d="M675.505,327.462H658.542a5.278,5.278,0,0,1-5.272-5.272V305.227a5.278,5.278,0,0,1,5.272-5.272h16.964a5.278,5.278,0,0,1,5.272,5.272V322.19A5.278,5.278,0,0,1,675.505,327.462Z" transform="translate(-453.245 -198.359)" fill="#e6e6e6"/>
  <path id="Path_81" data-name="Path 81" d="M510.9,418.953H493.934a5.278,5.278,0,0,1-5.272-5.272V396.718a5.278,5.278,0,0,1,5.272-5.272H510.9a5.278,5.278,0,0,1,5.272,5.272v16.964a5.278,5.278,0,0,1-5.272,5.272Z" transform="translate(-366.61 -246.512)" fill="#e6e6e6"/>
  <path id="Path_82" data-name="Path 82" d="M593.2,418.953H576.238a5.278,5.278,0,0,1-5.272-5.272V396.718a5.278,5.278,0,0,1,5.272-5.272H593.2a5.278,5.278,0,0,1,5.272,5.272v16.964a5.278,5.278,0,0,1-5.272,5.272Z" transform="translate(-409.928 -246.512)" fill="#e6e6e6"/>
  <path id="Path_83" data-name="Path 83" d="M675.505,418.953H658.542a5.278,5.278,0,0,1-5.272-5.272V396.718a5.278,5.278,0,0,1,5.272-5.272h16.964a5.278,5.278,0,0,1,5.272,5.272v16.964a5.278,5.278,0,0,1-5.272,5.272Z" transform="translate(-453.245 -246.512)" fill="#e6e6e6"/>
  <path id="Path_84" data-name="Path 84" d="M510.9,510.462H493.934a5.278,5.278,0,0,1-5.272-5.272V488.227a5.278,5.278,0,0,1,5.272-5.272H510.9a5.278,5.278,0,0,1,5.272,5.272V505.19A5.278,5.278,0,0,1,510.9,510.462Z" transform="translate(-366.61 -294.674)" fill="#e6e6e6"/>
  <path id="Path_85" data-name="Path 85" d="M593.2,510.462H576.238a5.278,5.278,0,0,1-5.272-5.272V488.227a5.278,5.278,0,0,1,5.272-5.272H593.2a5.278,5.278,0,0,1,5.272,5.272v16.964a5.278,5.278,0,0,1-5.272,5.272Z" transform="translate(-409.928 -294.674)" fill="#e6e6e6"/>
  <path id="Path_86" data-name="Path 86" d="M675.505,510.462H658.542a5.278,5.278,0,0,1-5.272-5.272V488.227a5.278,5.278,0,0,1,5.272-5.272h16.964a5.278,5.278,0,0,1,5.272,5.272V505.19A5.278,5.278,0,0,1,675.505,510.462Z" transform="translate(-453.245 -294.674)" fill="#e6e6e6"/>
  <path id="Path_87" data-name="Path 87" d="M615.972,499.324H599.008a5.515,5.515,0,0,1-5.509-5.509V476.851a5.515,5.515,0,0,1,5.509-5.508h16.964a5.515,5.515,0,0,1,5.509,5.508v16.964A5.515,5.515,0,0,1,615.972,499.324Z" transform="translate(-421.787 -288.562)" fill="#6c63ff"/>
  <path id="Path_88" data-name="Path 88" d="M463.554,574.917a4.9,4.9,0,0,0,1.752-7.3l3.663-35.816h-7.917l-2.911,34.973a4.925,4.925,0,0,0,5.413,8.148Z" transform="translate(-349.633 -320.379)" fill="#ffb8b8"/>
  <circle id="Ellipse_15" data-name="Ellipse 15" cx="11.2" cy="11.2" r="11.2" transform="translate(109.989 169.25)" fill="#ffb8b8"/>
  <path id="Path_89" data-name="Path 89" d="M479.872,534.274a2.048,2.048,0,0,1-1.974-1.5c-.9-3.26-3.232-8.773-6.939-16.385a13.572,13.572,0,0,1,7.707-18.738h0a13.566,13.566,0,0,1,17.432,8.642c2.873,9.008,2.735,18.658,2.542,22.388a2.057,2.057,0,0,1-1.612,1.9l-16.716,3.65A2.045,2.045,0,0,1,479.872,534.274Z" transform="translate(-356.574 -301.999)" fill="#ccc"/>
  <path id="Path_90" data-name="Path 90" d="M294.465,690.924h5.591l2.66-21.564h-8.252Z" transform="translate(-154.979 -352.29)" fill="#ffb8b8"/>
  <path id="Path_91" data-name="Path 91" d="M0,0H17.571V6.789H6.789A6.789,6.789,0,0,1,0,0H0Z" transform="translate(155.857 343.825) rotate(179.997)" fill="#2f2e41"/>
  <path id="Path_92" data-name="Path 92" d="M176.447,678.591l4.9,2.693,12.721-17.615-7.231-3.975Z" transform="translate(-92.866 -347.204)" fill="#ffb8b8"/>
  <path id="Path_93" data-name="Path 93" d="M0,0H17.571V6.789H6.789A6.789,6.789,0,0,1,0,0H0Z" transform="translate(95.428 343.824) rotate(-151.199)" fill="#2f2e41"/>
  <path id="Path_94" data-name="Path 94" d="M468.812,662.331a2.052,2.052,0,0,1-2.033-1.788l-6.992-53.879a1.14,1.14,0,0,0-2.129-.4l-29.139,52.867a2.063,2.063,0,0,1-2.528.928l-6.352-2.42a2.052,2.052,0,0,1-1.17-2.691l20.185-49.587a1.58,1.58,0,0,0,.1-.393c2.734-21.161,9.69-31.922,11.757-34.716a1.589,1.589,0,0,0,.226-1.447l-.284-.853a2.051,2.051,0,0,1,.395-2c7.447-8.483,20.428-3.854,20.558-3.806l.065.024.041.056c14.555,19.961,9.174,84.8,7.947,97.589a2.047,2.047,0,0,1-1.885,1.847l-8.607.663C468.918,662.329,468.865,662.331,468.812,662.331Z" transform="translate(-329.587 -335.667)" fill="#2f2e41"/>
  <path id="Path_95" data-name="Path 95" d="M545.947,489.786a4.781,4.781,0,0,0-.109.748l-19.59,11.3-4.762-2.741-5.076,6.645,7.958,5.671a3.648,3.648,0,0,0,4.377-.107l20.2-15.936a4.787,4.787,0,1,0-3-5.582Z" transform="translate(-381.214 -296.324)" fill="#ffb8b8"/>
  <path id="Path_96" data-name="Path 96" d="M514.9,510.158l-6.331,8.206a2.052,2.052,0,0,1-3.1.17l-7.167-7.443a5.7,5.7,0,0,1,6.989-9l8.99,5.027a2.052,2.052,0,0,1,.623,3.044Z" transform="translate(-370.522 -304.113)" fill="#ccc"/>
  <path id="Path_97" data-name="Path 97" d="M470.784,529.467l-10.2-1.842a2.052,2.052,0,0,1-1.58-2.676l3.306-9.79a5.7,5.7,0,1,1,11.211,2.058l-.323,10.294a2.052,2.052,0,0,1-2.416,1.955Z" transform="translate(-350.944 -309.165)" fill="#ccc"/>
  <path id="Path_98" data-name="Path 98" d="M445.8,445.63c2.879,1.97,6.659,4,9.6,1.9a5.35,5.35,0,0,0,1.756-6.168c-1.408-4.026-5.276-5.8-8.975-7.157-4.809-1.766-10.044-3.171-15.008-1.906s-9.351,6.071-8.455,11.115c.721,4.056,4.546,7.431,4,11.514-.547,4.11-5.168,6.273-9.249,7.008s-8.646.97-11.579,3.9c-3.741,3.739-2.807,10.422.713,14.369s8.832,5.737,13.979,6.953c6.82,1.612,14.2,2.459,20.673-.216s11.517-9.875,9.641-16.627c-.793-2.852-2.659-5.262-4.464-7.609s-3.631-4.8-4.32-7.679a7.983,7.983,0,0,1,1.442-6.984,2.023,2.023,0,0,0,.271-2.365Z" transform="translate(-322.836 -267.756)" fill="#2f2e41"/>
  <path id="Path_99" data-name="Path 99" d="M490.478,691.571h-5.807l-2.763-22.4h8.571Z" transform="translate(-253.633 -352.192)" fill="#ffb8b8"/>
  <path id="Path_100" data-name="Path 100" d="M471.148,712.956h11.2v7.052H464.1A7.052,7.052,0,0,1,471.148,712.956Z" transform="translate(-244.258 -375.236)" fill="#2f2e41"/>
  <path id="Path_101" data-name="Path 101" d="M536.478,691.571h-5.808l-2.762-22.4h8.571Z" transform="translate(-277.843 -352.192)" fill="#ffb8b8"/>
  <path id="Path_102" data-name="Path 102" d="M517.148,712.956h11.2v7.052H510.1A7.052,7.052,0,0,1,517.148,712.956Z" transform="translate(-268.469 -375.236)" fill="#2f2e41"/>
  <path id="Path_103" data-name="Path 103" d="M770.169,592.2a5.089,5.089,0,0,1-.977-7.742L765.368,530.2l11.015,1.068.3,53.142a5.116,5.116,0,0,1-6.516,7.8Z" transform="translate(-512.243 -319.537)" fill="#ffb8b8"/>
  <path id="Path_104" data-name="Path 104" d="M720.566,701.169l-6.393-.3a2.131,2.131,0,0,1-2.03-2.114l-.446-64.686a2.132,2.132,0,0,1,2.438-2.125l25.576,3.713a2.119,2.119,0,0,1,1.825,2.094l3.289,59.938a2.132,2.132,0,0,1-2.132,2.148H735.8a2.122,2.122,0,0,1-2.106-1.8L729.444,671a1.658,1.658,0,0,0-3.284.061l-3.376,28.233a2.14,2.14,0,0,1-2.117,1.878Q720.617,701.172,720.566,701.169Z" transform="translate(-483.996 -373.074)" fill="#2f2e41"/>
  <path id="Path_105" data-name="Path 105" d="M724.287,571.16a32.176,32.176,0,0,0-12.164-4.167,2.093,2.093,0,0,1-1.447-.792,2.122,2.122,0,0,1-.441-1.611l6.128-45.5a15.736,15.736,0,0,1,9.172-12.3,15.3,15.3,0,0,1,14.872,1.166q.315.21.618.428a15.716,15.716,0,0,1,5.986,16.377c-3.758,15.374-5.049,40.577-5.27,45.474a2.115,2.115,0,0,1-1.382,1.9,21.357,21.357,0,0,1-7.212,1.284A18.059,18.059,0,0,1,724.287,571.16Z" transform="translate(-483.216 -306.485)" fill="#6c63ff"/>
  <path id="Path_106" data-name="Path 106" d="M768.747,543.763a2.123,2.123,0,0,1-.88-1.611l-.807-14.626a5.873,5.873,0,0,1,11.533-1.86l3.545,13.076a2.134,2.134,0,0,1-1.5,2.615l-10.085,2.735A2.124,2.124,0,0,1,768.747,543.763Z" transform="translate(-513.129 -314.871)" fill="#6c63ff"/>
  <circle id="Ellipse_16" data-name="Ellipse 16" cx="11.634" cy="11.634" r="11.634" transform="translate(234.563 170.865)" fill="#ffb8b8"/>
  <path id="Path_107" data-name="Path 107" d="M650.838,514.74a5,5,0,0,1,.113.777L671.3,527.256l4.946-2.847,5.273,6.9-10.581,7.541-23.214-18.314a4.972,4.972,0,1,1,3.115-5.8Z" transform="translate(-446.801 -309.383)" fill="#ffb8b8"/>
  <path id="Path_108" data-name="Path 108" d="M706.458,527.973a2.123,2.123,0,0,1,.613-1.731l10.356-10.359a5.873,5.873,0,0,1,9.08,7.35L719.131,534.6a2.134,2.134,0,0,1-2.948.628l-8.765-5.688a2.124,2.124,0,0,1-.96-1.565Z" transform="translate(-481.232 -311.099)" fill="#6c63ff"/>
  <path id="Path_109" data-name="Path 109" d="M744.087,461.3a3.758,3.758,0,0,1-6.484-2.088,3.821,3.821,0,0,1,0-.737c.146-1.4.954-2.669.761-4.146a2.177,2.177,0,0,0-.4-1.018c-1.73-2.316-5.789,1.036-7.422-1.061-1-1.286.176-3.31-.592-4.747-1.014-1.9-4.016-.961-5.9-2-2.1-1.156-1.97-4.37-.591-6.325a9.949,9.949,0,0,1,7.543-3.84,20.233,20.233,0,0,1,8.523,1.663c3.089,1.2,6.152,2.867,8.053,5.584,2.312,3.3,2.534,7.744,1.378,11.606C748.26,456.547,745.859,459.417,744.087,461.3Z" transform="translate(-489.657 -269.601)" fill="#2f2e41"/>
  <path id="Path_110" data-name="Path 110" d="M580.11,813.47H231.474a.474.474,0,1,1,0-.947H580.11a.474.474,0,0,1,0,.947Z" transform="translate(-231 -468.129)" fill="#ccc"/>
</svg>
