<svg data-name="Group 113" xmlns="http://www.w3.org/2000/svg" width="349.583" height="345.342"><path data-name="Path 73" d="M260.74 81.923h-1.894v-51.89A30.033 30.033 0 00228.813 0H118.876a30.033 30.033 0 00-30.033 30.033v284.675a30.033 30.033 0 0030.033 30.033h109.937a30.033 30.033 0 0030.033-30.033V118.86h1.894z" fill="#e6e6e6"/><path data-name="Path 74" d="M252.454 30.242v284.257a22.429 22.429 0 01-22.429 22.429H119.56a22.43 22.43 0 01-22.429-22.429V30.242A22.43 22.43 0 01119.56 7.813h13.4a10.661 10.661 0 009.867 14.68h62.983a10.661 10.661 0 009.867-14.68h14.348a22.429 22.429 0 0122.429 22.429z" fill="#fff"/><path data-name="Path 75" d="M144.29 85.756h-16.966a5.278 5.278 0 01-5.272-5.272V63.521a5.278 5.278 0 015.272-5.272h16.966a5.278 5.278 0 015.272 5.272v16.964a5.278 5.278 0 01-5.272 5.271z" fill="#6c63ff"/><path data-name="Path 76" d="M183.272 85.756H166.31a5.278 5.278 0 01-5.272-5.272V63.521a5.278 5.278 0 015.272-5.272h16.962a5.278 5.278 0 015.272 5.272v16.964a5.278 5.278 0 01-5.272 5.272z" fill="#6c63ff"/><path data-name="Path 77" d="M222.26 85.756h-16.963a5.278 5.278 0 01-5.272-5.272V63.521a5.278 5.278 0 015.272-5.272h16.964a5.278 5.278 0 015.272 5.272v16.964a5.278 5.278 0 01-5.273 5.271z" fill="#e6e6e6"/><path data-name="Path 78" d="M144.29 129.103h-16.966a5.278 5.278 0 01-5.272-5.272v-16.963a5.278 5.278 0 015.272-5.272h16.966a5.278 5.278 0 015.272 5.272v16.963a5.278 5.278 0 01-5.272 5.272z" fill="#e6e6e6"/><path data-name="Path 79" d="M183.272 129.103H166.31a5.278 5.278 0 01-5.272-5.272v-16.963a5.278 5.278 0 015.272-5.272h16.962a5.278 5.278 0 015.272 5.272v16.964a5.278 5.278 0 01-5.272 5.272z" fill="#e6e6e6"/><path data-name="Path 80" d="M222.26 129.103h-16.963a5.278 5.278 0 01-5.272-5.272v-16.963a5.278 5.278 0 015.272-5.272h16.964a5.278 5.278 0 015.272 5.272v16.963a5.278 5.278 0 01-5.273 5.272z" fill="#e6e6e6"/><path data-name="Path 81" d="M144.29 172.441h-16.966a5.278 5.278 0 01-5.272-5.272v-16.963a5.278 5.278 0 015.272-5.272h16.966a5.278 5.278 0 015.272 5.272v16.964a5.278 5.278 0 01-5.272 5.272z" fill="#e6e6e6"/><path data-name="Path 82" d="M183.272 172.441H166.31a5.278 5.278 0 01-5.272-5.272v-16.963a5.278 5.278 0 015.272-5.272h16.962a5.278 5.278 0 015.272 5.272v16.964a5.278 5.278 0 01-5.272 5.272z" fill="#e6e6e6"/><path data-name="Path 83" d="M222.26 172.441h-16.963a5.278 5.278 0 01-5.272-5.272v-16.963a5.278 5.278 0 015.272-5.272h16.964a5.278 5.278 0 015.272 5.272v16.964a5.278 5.278 0 01-5.272 5.272z" fill="#e6e6e6"/><path data-name="Path 84" d="M144.29 215.788h-16.966a5.278 5.278 0 01-5.272-5.272v-16.963a5.278 5.278 0 015.272-5.272h16.966a5.278 5.278 0 015.272 5.272v16.963a5.278 5.278 0 01-5.272 5.272z" fill="#e6e6e6"/><path data-name="Path 85" d="M183.272 215.788H166.31a5.278 5.278 0 01-5.272-5.272v-16.963a5.278 5.278 0 015.272-5.272h16.962a5.278 5.278 0 015.272 5.272v16.964a5.278 5.278 0 01-5.272 5.272z" fill="#e6e6e6"/><path data-name="Path 86" d="M222.26 215.788h-16.963a5.278 5.278 0 01-5.272-5.272v-16.963a5.278 5.278 0 015.272-5.272h16.964a5.278 5.278 0 015.272 5.272v16.963a5.278 5.278 0 01-5.273 5.272z" fill="#e6e6e6"/><path data-name="Path 87" d="M194.185 210.762h-16.964a5.515 5.515 0 01-5.509-5.509v-16.964a5.515 5.515 0 015.509-5.508h16.964a5.515 5.515 0 015.509 5.508v16.964a5.515 5.515 0 01-5.509 5.509z" fill="#6c63ff"/><path data-name="Path 88" d="M113.921 254.538a4.9 4.9 0 001.752-7.3l3.663-35.816h-7.917l-2.911 34.973a4.925 4.925 0 005.413 8.148z" fill="#ffb8b8"/><circle data-name="Ellipse 15" cx="11.2" cy="11.2" r="11.2" transform="translate(109.989 169.25)" fill="#ffb8b8"/><path data-name="Path 89" d="M123.298 232.275a2.048 2.048 0 01-1.974-1.5c-.9-3.26-3.232-8.773-6.939-16.385a13.572 13.572 0 017.707-18.738 13.566 13.566 0 0117.432 8.642c2.873 9.008 2.735 18.658 2.542 22.388a2.057 2.057 0 01-1.612 1.9l-16.716 3.65a2.045 2.045 0 01-.44.043z" fill="#ccc"/><path data-name="Path 90" d="M139.486 338.634h5.591l2.66-21.564h-8.252z" fill="#ffb8b8"/><path data-name="Path 91" d="M155.857 343.825h-17.571v-6.788h10.782a6.789 6.789 0 016.789 6.788z" fill="#2f2e41"/><path data-name="Path 92" d="M83.581 331.387l4.9 2.693 12.721-17.615-7.231-3.975z" fill="#ffb8b8"/><path data-name="Path 93" d="M95.428 343.824l-15.397-8.465 3.27-5.95 9.449 5.195a6.789 6.789 0 012.678 9.22z" fill="#2f2e41"/><path data-name="Path 94" d="M139.225 326.664a2.052 2.052 0 01-2.033-1.788l-6.992-53.879a1.14 1.14 0 00-2.129-.4l-29.139 52.867a2.063 2.063 0 01-2.528.928l-6.352-2.42a2.052 2.052 0 01-1.17-2.691l20.185-49.587a1.58 1.58 0 00.1-.393c2.734-21.161 9.69-31.922 11.757-34.716a1.589 1.589 0 00.226-1.447l-.284-.853a2.051 2.051 0 01.395-2c7.447-8.483 20.428-3.854 20.558-3.806l.065.024.041.056c14.555 19.961 9.174 84.8 7.947 97.589a2.047 2.047 0 01-1.885 1.847l-8.607.663a1.932 1.932 0 01-.155.006z" fill="#2f2e41"/><path data-name="Path 95" d="M164.733 193.462a4.781 4.781 0 00-.109.748l-19.59 11.3-4.762-2.741-5.076 6.645 7.958 5.671a3.648 3.648 0 004.377-.107l20.2-15.936a4.787 4.787 0 10-3-5.582z" fill="#ffb8b8"/><path data-name="Path 96" d="M144.378 206.045l-6.331 8.206a2.052 2.052 0 01-3.1.17l-7.167-7.443a5.7 5.7 0 016.989-9l8.99 5.027a2.052 2.052 0 01.623 3.044z" fill="#ccc"/><path data-name="Path 97" d="M119.84 220.302l-10.2-1.842a2.052 2.052 0 01-1.58-2.676l3.306-9.79a5.7 5.7 0 1111.211 2.058l-.323 10.294a2.052 2.052 0 01-2.416 1.955z" fill="#ccc"/><path data-name="Path 98" d="M122.964 177.874c2.879 1.97 6.659 4 9.6 1.9a5.35 5.35 0 001.756-6.168c-1.408-4.026-5.276-5.8-8.975-7.157-4.809-1.766-10.044-3.171-15.008-1.906s-9.351 6.071-8.455 11.115c.721 4.056 4.546 7.431 4 11.514-.547 4.11-5.168 6.273-9.249 7.008s-8.646.97-11.579 3.9c-3.741 3.739-2.807 10.422.713 14.369s8.832 5.737 13.979 6.953c6.82 1.612 14.2 2.459 20.673-.216s11.517-9.875 9.641-16.627c-.793-2.852-2.659-5.262-4.464-7.609s-3.631-4.8-4.32-7.679a7.983 7.983 0 011.442-6.984 2.023 2.023 0 00.271-2.365z" fill="#2f2e41"/><path data-name="Path 99" d="M236.845 339.379h-5.807l-2.763-22.4h8.571z" fill="#ffb8b8"/><path data-name="Path 100" d="M226.89 337.72h11.2v7.052h-18.248a7.052 7.052 0 017.048-7.052z" fill="#2f2e41"/><path data-name="Path 101" d="M258.635 339.379h-5.808l-2.762-22.4h8.571z" fill="#ffb8b8"/><path data-name="Path 102" d="M248.679 337.72h11.2v7.052h-18.248a7.052 7.052 0 017.048-7.052z" fill="#2f2e41"/><path data-name="Path 103" d="M257.926 272.663a5.089 5.089 0 01-.977-7.742l-3.824-54.258 11.015 1.068.3 53.142a5.116 5.116 0 01-6.516 7.8z" fill="#ffb8b8"/><path data-name="Path 104" d="M236.57 328.095l-6.393-.3a2.131 2.131 0 01-2.03-2.114l-.446-64.686a2.132 2.132 0 012.438-2.125l25.576 3.713a2.119 2.119 0 011.825 2.094l3.289 59.938a2.132 2.132 0 01-2.132 2.148h-6.893a2.122 2.122 0 01-2.106-1.8l-4.25-27.037a1.658 1.658 0 00-3.284.061l-3.376 28.233a2.14 2.14 0 01-2.117 1.878q-.05 0-.101-.003z" fill="#2f2e41"/><path data-name="Path 105" d="M241.071 264.675a32.176 32.176 0 00-12.164-4.167 2.093 2.093 0 01-1.447-.792 2.122 2.122 0 01-.441-1.611l6.128-45.5a15.736 15.736 0 019.172-12.3 15.3 15.3 0 0114.872 1.166q.315.21.618.428a15.716 15.716 0 015.986 16.377c-3.758 15.374-5.049 40.577-5.27 45.474a2.115 2.115 0 01-1.382 1.9 21.357 21.357 0 01-7.212 1.284 18.059 18.059 0 01-8.86-2.259z" fill="#6c63ff"/><path data-name="Path 106" d="M255.618 228.892a2.123 2.123 0 01-.88-1.611l-.807-14.626a5.873 5.873 0 0111.533-1.86l3.545 13.076a2.134 2.134 0 01-1.5 2.615l-10.085 2.735a2.124 2.124 0 01-1.806-.329z" fill="#6c63ff"/><circle data-name="Ellipse 16" cx="11.634" cy="11.634" r="11.634" transform="translate(234.563 170.865)" fill="#ffb8b8"/><path data-name="Path 107" d="M204.037 205.357a5 5 0 01.113.777l20.349 11.739 4.946-2.847 5.273 6.9-10.581 7.541-23.214-18.314a4.972 4.972 0 113.115-5.8z" fill="#ffb8b8"/><path data-name="Path 108" d="M225.226 216.874a2.123 2.123 0 01.613-1.731l10.356-10.359a5.873 5.873 0 019.08 7.35l-7.376 11.367a2.134 2.134 0 01-2.948.628l-8.765-5.688a2.124 2.124 0 01-.96-1.565z" fill="#6c63ff"/><path data-name="Path 109" d="M254.43 191.699a3.758 3.758 0 01-6.484-2.088 3.821 3.821 0 010-.737c.146-1.4.954-2.669.761-4.146a2.177 2.177 0 00-.4-1.018c-1.73-2.316-5.789 1.036-7.422-1.061-1-1.286.176-3.31-.592-4.747-1.014-1.9-4.016-.961-5.9-2-2.1-1.156-1.97-4.37-.591-6.325a9.949 9.949 0 017.543-3.84 20.233 20.233 0 018.523 1.663c3.089 1.2 6.152 2.867 8.053 5.584 2.312 3.3 2.534 7.744 1.378 11.606-.696 2.356-3.097 5.226-4.869 7.109z" fill="#2f2e41"/><path data-name="Path 110" d="M349.11 345.341H.474a.474.474 0 110-.947H349.11a.474.474 0 010 .947z" fill="#ccc"/></svg>