<svg height="24" width="24" xmlns="http://www.w3.org/2000/svg"><path d="M12 11c-1.277 0-2.494.2-3.594.7C9.055 13 10.417 14 12 14s2.945-1 3.594-2.3c-1.1-.5-2.317-.7-3.594-.7z" fill="#95a5a6"/><path d="M8.406 12.7c-2.885 1.3-4.978 4-5.344 7.3 0 1.1.833 2 1.938 2h14c1.105 0 1.938-.9 1.938-2-.366-3.3-2.459-6-5.344-7.3C14.945 14 13.583 15 12 15s-2.945-1-3.594-2.3z" fill="#d35400"/><path d="M8.406 11.7c-2.885 1.3-4.978 4-5.344 7.3 0 1.1.833 2 1.938 2h14c1.105 0 1.938-.9 1.938-2-.366-3.3-2.459-6-5.344-7.3C14.945 13 13.583 14 12 14s-2.945-1-3.594-2.3z" fill="#e67e22"/><path d="M12 11a8.937 8.937 0 00-3.25.625c.94.616 2.047 1 3.25 1 1.206 0 2.308-.381 3.25-1A8.938 8.938 0 0012 11z" fill="#7f8c8d"/><path d="M17 7A5 5 0 117 7a5 5 0 1110 0z" fill="#bdc3c7"/><path d="M8.406 11.7c-.317.2-.61.3-.906.5.815 1.6 2.541 2.8 4.5 2.8s3.685-1.2 4.5-2.8c-.297-.2-.589-.3-.906-.5C14.945 13 13.583 14 12 14s-2.945-1-3.594-2.3z" fill="#d35400" style="block-progression:tb;text-indent:0;text-transform:none" color="#000"/></svg>